<?xml version="1.0" encoding="UTF-8"?>
<svg xmlns="http://www.w3.org/2000/svg" xmlns:xlink="http://www.w3.org/1999/xlink" viewBox="0 0 10.81 10.77">
  <defs>
    <style>
      .cls-1 {
        fill: url(#linear-gradient-3);
      }

      .cls-2 {
        fill: url(#linear-gradient-2);
      }

      .cls-3 {
        fill: url(#linear-gradient);
      }

      .cls-4 {
        isolation: isolate;
      }

      .cls-5 {
        fill: #b84635;
      }

      .cls-6 {
        fill: #fff;
      }

      .cls-7, .cls-8 {
        mix-blend-mode: overlay;
      }

      .cls-8 {
        opacity: .54;
      }
    </style>
    <linearGradient id="linear-gradient" x1="150.97" y1="-59.69" x2="153.62" y2="-51.98" gradientTransform="translate(-138.51 -28.34) rotate(35.77) scale(.92 .99) skewX(3.17)" gradientUnits="userSpaceOnUse">
      <stop offset=".16" stop-color="#fdff9c"/>
      <stop offset=".76" stop-color="#ffde63"/>
    </linearGradient>
    <linearGradient id="linear-gradient-2" x1="138.26" y1="-56.02" x2="140.91" y2="-48.31" gradientTransform="translate(-139.98 -28.82) rotate(34.25)" xlink:href="#linear-gradient"/>
    <linearGradient id="linear-gradient-3" x1="138.76" y1="-59.14" x2="138.89" y2="-51.83" gradientTransform="translate(-139.98 -28.82) rotate(34.25)" gradientUnits="userSpaceOnUse">
      <stop offset=".06" stop-color="#fff"/>
      <stop offset=".87" stop-color="#fff" stop-opacity="0"/>
    </linearGradient>
  </defs>
  <g class="cls-4">
    <g id="Layer_2" data-name="Layer 2">
      <g id="Layer_1-2" data-name="Layer 1">
        <g>
          <g>
            <path class="cls-3" d="M6.79.49c.23.89.44,1.78.64,2.67.04.19.17.34.35.42.84.36,1.68.74,2.51,1.13.44.21.45.83.02,1.05-.8.41-1.59.83-2.36,1.27-.16.09-.27.26-.29.45-.1.9-.21,1.8-.32,2.7-.06.48-.6.69-.92.38-.59-.6-1.21-1.19-1.83-1.77-.13-.12-.32-.16-.49-.11-.83.25-1.64.51-2.45.79-.43.15-.8-.28-.64-.73.31-.85.62-1.7.93-2.55.07-.18.04-.38-.06-.53-.5-.73-1.01-1.45-1.55-2.16-.28-.38-.01-.93.47-.93.91,0,1.82.02,2.73.07.19,0,.38-.08.49-.23.56-.72,1.13-1.43,1.7-2.13.31-.38.94-.23,1.06.24Z"/>
            <path class="cls-5" d="M6.81.48l.56,2.18c.09.29.14.77.5.85.52.21,1.57.64,2.08.86.37.13.9.39.85.9.02.48-.51.71-.87.89-.49.26-1.48.77-1.97,1.02-.24.14-.19.58-.27.94-.13.75-.18,1.47-.35,2.24-.09.19-.27.34-.48.37-.4.14-1.01-.69-1.38-.98,0,0-.82-.77-.82-.77-.28-.35-.53-.26-.9-.11,0,0-2.14.74-2.14.74-.52.15-.98-.44-.82-.92,0,0,.38-1.07.38-1.07,0,0,.38-1.06.38-1.06.06-.24.32-.63.1-.86,0,0-1.3-1.82-1.3-1.82-.27-.3-.55-.87-.17-1.27.28-.39.84-.27,1.23-.26,0,0,2.22.11,2.22.11.28-.02.48-.42.74-.68l.73-.85c.26-.27.44-.6.76-.84.35-.21.86,0,.94.4h0ZM6.77.49c-.09-.36-.56-.54-.86-.35-.26.22-.47.57-.7.85-.22.31-.79,1.06-1,1.35-.09.15-.29.35-.51.38-1,.05-1.88.02-2.84.02-.28-.03-.47.22-.4.46.02.09.16.25.26.4l1.32,1.84c.14.17.22.48.14.71-.13.35-.46,1.24-.6,1.6,0,0-.39,1.04-.39,1.04-.1.26.12.56.38.49l2.15-.64c.19-.04.34-.14.58-.13.24,0,.41.2.53.32.4.39,1.2,1.2,1.6,1.59.22.31.68.19.8-.13.13-.69.17-1.48.24-2.21.05-.37-.02-.89.33-1.16.6-.37,1.37-.79,1.98-1.12,0,0,.48-.27.48-.27.23-.13.25-.49.04-.65-.68-.36-1.79-.87-2.48-1.23-.42-.13-.47-.64-.54-1,0,0-.49-2.2-.49-2.2h0Z"/>
          </g>
          <path class="cls-2" d="M6.41,10.54c-.6-.6-1.2-1.19-1.83-1.77-.13-.12-.32-.16-.48-.11-.83.24-1.65.51-2.45.79-.43.15-.8-.28-.64-.73.31-.86.63-1.71.93-2.56.07-.18.05-.37-.05-.53-.5-.73-1.02-1.45-1.55-2.16-.12-.17-.14-.37-.07-.54.07-.23.28-.39.54-.4.9,0,1.82.03,2.73.07.19,0,.37-.08.49-.22.56-.72,1.13-1.43,1.71-2.14.3-.38.93-.23,1.06.24.22.89.44,1.78.63,2.67.05.19.17.35.35.41.84.37,1.68.74,2.51,1.14.13.07.23.17.28.29.12.26.03.6-.26.75-.8.41-1.58.83-2.36,1.27-.16.1-.28.26-.3.45-.1.9-.21,1.8-.31,2.69-.06.48-.6.69-.92.38Z"/>
          <path class="cls-8" d="M6.41,10.54c-.6-.6-1.2-1.19-1.83-1.77-.13-.12-.32-.16-.48-.11-.83.24-1.65.51-2.45.79-.43.15-.8-.28-.64-.73.31-.86.63-1.71.93-2.56.07-.18.05-.37-.05-.53-.5-.73-1.02-1.45-1.55-2.16-.12-.17-.14-.37-.07-.54,1.33,1.26,2.97,2.57,5.01,2.91,1.89.32,4.16-.09,5.29-.85.12.26.03.6-.26.75-.8.41-1.58.83-2.36,1.27-.16.1-.28.26-.3.45-.1.9-.21,1.8-.31,2.69-.06.48-.6.69-.92.38Z"/>
          <g class="cls-7">
            <path class="cls-6" d="M6.19.26h0c.15,0,.34.09.39.28.18.73.42,1.69.63,2.67.07.27.25.48.48.56,1.02.44,1.79.79,2.49,1.13.08.04.15.11.18.18.07.15.03.36-.16.46-.86.44-1.68.89-2.37,1.27-.23.13-.38.36-.41.62-.1.9-.21,1.79-.31,2.69-.03.22-.2.33-.34.33-.07,0-.14-.03-.2-.08-.62-.62-1.22-1.21-1.84-1.78-.13-.12-.31-.19-.49-.19-.07,0-.14.01-.21.03-.8.23-1.61.49-2.46.79-.03.01-.07.02-.1.02-.09,0-.17-.04-.22-.12-.07-.09-.08-.22-.04-.34l.4-1.1c.18-.49.36-.97.53-1.46.09-.25.07-.51-.08-.74-.44-.65-.93-1.33-1.55-2.16-.07-.1-.09-.22-.04-.34.04-.14.17-.23.33-.23.92,0,1.84.03,2.76.07.24,0,.48-.11.64-.31.5-.64,1.04-1.32,1.71-2.14.09-.11.21-.13.27-.13M6.19.03c-.17,0-.33.07-.45.21-.58.71-1.15,1.42-1.71,2.14-.12.14-.28.22-.46.22,0,0-.02,0-.03,0-.91-.04-1.83-.06-2.73-.07-.27,0-.48.17-.54.4-.07.17-.05.37.07.54.53.71,1.05,1.43,1.55,2.16.1.16.12.35.05.53-.31.85-.62,1.7-.93,2.56-.14.39.12.76.47.76.05,0,.11,0,.17-.03.8-.28,1.62-.55,2.45-.79.05-.01.1-.02.14-.02.12,0,.25.05.34.13.63.58,1.24,1.17,1.83,1.77.1.1.23.15.36.15.26,0,.52-.2.57-.53.11-.9.22-1.8.31-2.69.02-.19.13-.36.3-.45.78-.43,1.56-.86,2.36-1.27.29-.15.38-.49.26-.75-.05-.12-.15-.22-.28-.29-.82-.4-1.66-.77-2.51-1.14-.18-.07-.3-.23-.35-.41-.19-.89-.41-1.78-.63-2.67-.08-.29-.35-.45-.61-.45h0Z"/>
          </g>
          <g class="cls-7">
            <path class="cls-1" d="M6.21,9.63c-.53-.54-1.07-1.06-1.63-1.57-.03-.03-.08-.04-.13-.03-.74.21-1.47.45-2.19.7-.35.12-.66-.23-.53-.6.27-.76.55-1.5.82-2.25.02-.07.01-.14-.03-.2-.43-.64-.88-1.27-1.35-1.89-.1-.14-.12-.31-.06-.45.06-.19.23-.32.45-.33.8,0,1.61.02,2.41.06.07,0,.13-.03.17-.08.6-.78,1.21-1.54,1.85-2.3.12-.14.35-.09.4.09.24.96.47,1.91.68,2.86.02.08.07.14.14.17.74.32,1.48.65,2.2,1,.11.06.19.14.23.24.1.22.02.5-.22.62-.71.36-1.4.74-2.08,1.12-.06.03-.1.09-.11.16-.08.79-.18,1.58-.28,2.37-.05.4-.5.57-.76.31Z"/>
          </g>
        </g>
      </g>
    </g>
  </g>
</svg>