<?xml version="1.0" encoding="UTF-8"?>
<svg xmlns="http://www.w3.org/2000/svg" xmlns:xlink="http://www.w3.org/1999/xlink" viewBox="0 0 41.51 38.66">
  <defs>
    <style>
      .cls-1 {
        fill: #507ecc;
      }

      .cls-2 {
        fill: url(#radial-gradient-7);
      }

      .cls-3 {
        fill: url(#radial-gradient-6);
      }

      .cls-4 {
        fill: url(#radial-gradient-5);
      }

      .cls-5 {
        fill: url(#radial-gradient-4);
      }

      .cls-6 {
        fill: url(#radial-gradient-3);
      }

      .cls-7 {
        fill: url(#radial-gradient-2);
      }

      .cls-8 {
        fill: url(#radial-gradient);
      }

      .cls-9 {
        fill: #ffb8d3;
      }

      .cls-10 {
        fill: #fffefa;
      }

      .cls-10, .cls-11 {
        mix-blend-mode: overlay;
      }

      .cls-12 {
        isolation: isolate;
      }

      .cls-13 {
        fill: #b84635;
      }

      .cls-14 {
        fill: #fff;
      }

      .cls-15 {
        fill: #bce5f2;
      }

      .cls-16 {
        fill: #ab1a0f;
      }

      .cls-17 {
        fill: #ffefb4;
      }

      .cls-11 {
        opacity: .75;
      }

      .cls-18 {
        fill: #ff85b5;
      }
    </style>
    <radialGradient id="radial-gradient" cx="-25.93" cy="22.17" fx="-25.93" fy="22.17" r="3.73" gradientTransform="translate(-8.68 -6.26) rotate(-171.9) scale(1.03 -1)" gradientUnits="userSpaceOnUse">
      <stop offset="0" stop-color="#ffce1d"/>
      <stop offset="1" stop-color="#ff8f25"/>
    </radialGradient>
    <radialGradient id="radial-gradient-2" cx="390.19" cy="27.85" fx="390.19" fy="27.85" r="1.29" gradientTransform="translate(-373.02 -58.12) rotate(8.1) scale(1.03 1)" xlink:href="#radial-gradient"/>
    <radialGradient id="radial-gradient-3" cx="389.85" cy="32.45" fx="389.85" fy="32.45" r="1.16" gradientTransform="translate(-373.02 -58.12) rotate(8.1) scale(1.03 1)" xlink:href="#radial-gradient"/>
    <radialGradient id="radial-gradient-4" cx="385.89" cy="16.82" fx="385.89" fy="16.82" r="13.19" gradientTransform="translate(-363.53 -76.6) rotate(8.72) scale(1.03 1) skewX(.24)" gradientUnits="userSpaceOnUse">
      <stop offset="0" stop-color="#fa4969"/>
      <stop offset="1" stop-color="#f22516"/>
    </radialGradient>
    <radialGradient id="radial-gradient-5" cx="389.19" cy="21.26" fx="389.19" fy="21.26" r="13.36" xlink:href="#radial-gradient-4"/>
    <radialGradient id="radial-gradient-6" cx="421.65" cy=".85" fx="421.65" fy=".85" r="2.44" gradientTransform="translate(-390.27 -94.16) rotate(12.72) scale(1.03 1)" gradientUnits="userSpaceOnUse">
      <stop offset="0" stop-color="#fad2d9"/>
      <stop offset="1" stop-color="#ffd9d6"/>
    </radialGradient>
    <radialGradient id="radial-gradient-7" cx="405.4" cy="23.72" fx="405.4" fy="23.72" r="3.73" gradientTransform="translate(-373.02 -58.12) rotate(8.1) scale(1.03 1)" xlink:href="#radial-gradient"/>
  </defs>
  <g class="cls-12">
    <g id="Layer_2" data-name="Layer 2">
      <g id="Layer_1-2" data-name="Layer 1">
        <g>
          <g>
            <g>
              <path class="cls-8" d="M17.91,23.13s-.07,0-.09-.03l-3.94-2.47c-.34.08-1.75.42-2.7.42h0c-.34,0-.59-.04-.76-.13-.15-.06-.24-.18-.28-.34-.02-.18.03-.33.14-.46.32-.36,1.11-.5,1.64-.55-.46-.37-1.13-.97-1.18-1.43-.01-.14.03-.26.11-.36.09-.11.24-.17.42-.17.53,0,1.36.51,1.81.82-.02-.61,0-1.77.37-2.16.1-.1.22-.16.35-.16.06,0,.12.01.19.04.12.04.22.11.29.2.55.55.38,2.04.31,2.48l3.75,3.1c.24.4.28.69.15.9-.17.29-.55.3-.59.3Z"/>
              <path class="cls-13" d="M13.79,16.3s.08,0,.13.02c.08.03.16.07.21.14.58.58.26,2.44.26,2.44l3.83,3.16c.5.88-.31.88-.32.88h0l-4.01-2.51s-1.67.43-2.73.43c-.29,0-.53-.03-.68-.11-.11-.05-.16-.12-.18-.22-.09-.78,2.1-.82,2.1-.82,0,0-1.88-1.33-1.43-1.81.07-.08.17-.11.29-.11.67,0,2,1,2,1,0,0-.18-2.5.52-2.5M13.8,15.94c-.18,0-.35.07-.48.22-.35.37-.42,1.27-.42,1.95-.48-.31-1.15-.66-1.62-.66-.29,0-.46.13-.55.23-.11.12-.17.3-.15.49.04.41.5.9.93,1.28-.5.08-1.07.24-1.34.55-.15.17-.21.37-.19.58.05.25.18.41.39.5.17.09.44.14.82.14.91,0,2.22-.3,2.67-.4l3.88,2.43c.06.04.12.05.19.05.09,0,.53-.02.74-.38.16-.27.12-.62-.11-1.03-.02-.04-.05-.07-.08-.1l-3.68-3.03c.08-.58.19-1.96-.39-2.55-.06-.08-.19-.17-.35-.23-.08-.03-.16-.04-.24-.04h0Z"/>
            </g>
            <path class="cls-17" d="M12.41,19.72c.25-.04.42-.05.42-.05,0,0-1.77-.96-1.49-1.48.25-.49,2.17.79,2.37.91,0-.18-.18-1.53.03-2.16.09-.28.24-.41.4-.47-.06-.07-.13-.12-.21-.14-.85-.31-.65,2.47-.65,2.47,0,0-1.85-1.39-2.29-.89-.45.48,1.43,1.81,1.43,1.81Z"/>
            <path class="cls-17" d="M10.31,20.54c.02.1.07.17.18.22.24-.64,1.32-.92,1.92-1.04,0,0-2.19.04-2.1.82Z"/>
          </g>
          <g>
            <path class="cls-14" d="M25.05,38.26c-.81,0-1.63-.08-2.43-.22-3.28-.61-6.17-2.45-7.94-5.04-1.52-2.23-2.1-4.85-1.62-7.37.91-4.82,5.55-8.33,11.04-8.33.81,0,1.62.08,2.43.23,1.74.33,3.34.98,4.76,1.94,3.66,2.44,5.55,6.56,4.8,10.49-.47,2.46-1.92,4.65-4.08,6.16-1.94,1.38-4.42,2.14-6.96,2.14Z"/>
            <path class="cls-1" d="M24.1,17.7c.77,0,1.56.07,2.36.22,1.72.33,3.28.98,4.61,1.88,3.43,2.29,5.37,6.16,4.63,10.08-.46,2.45-1.92,4.51-3.92,5.91-1.86,1.32-4.21,2.07-6.73,2.07-.77,0-1.56-.07-2.36-.22-6.14-1.15-10.27-6.5-9.23-11.94.89-4.75,5.42-8,10.64-8M24.1,16.9h0c-5.68,0-10.49,3.64-11.43,8.66-.5,2.62.1,5.35,1.68,7.67,1.83,2.68,4.81,4.58,8.2,5.21.83.15,1.68.23,2.51.23,2.63,0,5.19-.79,7.2-2.22,2.25-1.57,3.76-3.85,4.24-6.42.77-4.09-1.18-8.37-4.98-10.9-1.46-.99-3.11-1.66-4.91-2-.83-.16-1.67-.23-2.5-.23h0Z"/>
          </g>
          <path class="cls-15" d="M31.78,35.79c2.85-3.09,4.18-7.4,2.14-10.13-2.99-4-8.77-3.19-8.77-3.19l5.92-2.67c3.43,2.29,5.37,6.16,4.63,10.08-.46,2.45-1.92,4.51-3.92,5.91Z"/>
          <g>
            <path class="cls-14" d="M27.37,21.7c-.57,0-1.15-.05-1.72-.16-2.37-.44-4.46-1.75-5.73-3.61-1.08-1.59-1.48-3.45-1.13-5.24.67-3.45,4.04-5.96,7.99-5.96.57,0,1.15.05,1.72.16,2.37.44,4.46,1.75,5.73,3.61,1.08,1.59,1.48,3.45,1.13,5.24-.68,3.45-4.04,5.96-7.99,5.96Z"/>
            <path class="cls-1" d="M26.78,7.11c.54,0,1.1.05,1.66.15,4.37.8,7.3,4.56,6.55,8.4-.65,3.35-3.9,5.65-7.62,5.65-.54,0-1.1-.05-1.66-.15-4.37-.8-7.3-4.56-6.55-8.4.65-3.35,3.9-5.65,7.62-5.65M26.78,6.34c-4.14,0-7.66,2.64-8.37,6.27-.37,1.89.05,3.86,1.19,5.53,1.32,1.94,3.5,3.32,5.98,3.77.59.11,1.2.16,1.79.16,4.14,0,7.66-2.64,8.37-6.27.37-1.89-.05-3.86-1.19-5.53-1.32-1.94-3.5-3.32-5.98-3.77-.59-.11-1.2-.16-1.79-.16h0Z"/>
          </g>
          <path class="cls-14" d="M34.99,15.67c-.05.23-.1.47-.18.7-1.14,3.58-5.55,6.85-9.66,6.1-2.13-.4-3.78-1.79-4.82-3.57-1.12-1.88-1.56-4.17-1.16-6.13.75-3.84,4.9-6.3,9.27-5.5,4.37.8,7.3,4.57,6.56,8.41Z"/>
          <g>
            <path class="cls-7" d="M21.1,27.41c-.08,0-.17,0-.25-.02-.36-.07-.66-.27-.86-.56-.19-.28-.27-.62-.2-.96.12-.61.66-1.05,1.3-1.05.08,0,.17,0,.25.02.36.07.66.27.86.56.19.28.27.62.2.96-.12.61-.66,1.05-1.3,1.05Z"/>
            <path class="cls-13" d="M21.08,24.99c.07,0,.15,0,.22.02.63.12,1.04.71.92,1.31-.1.54-.58.91-1.12.91-.07,0-.15,0-.22-.02-.63-.12-1.04-.71-.92-1.31.1-.54.58-.91,1.12-.91M21.08,24.64h0c-.72,0-1.34.5-1.47,1.2-.07.38,0,.77.23,1.09.23.33.57.56.98.64.1.02.19.03.29.03.72,0,1.34-.5,1.47-1.2.07-.38,0-.77-.23-1.09-.23-.33-.57-.56-.98-.64-.1-.02-.19-.03-.29-.03h0Z"/>
          </g>
          <g>
            <path class="cls-6" d="M20.11,31.78c-.07,0-.15,0-.23-.02-.32-.06-.6-.24-.78-.5-.17-.26-.24-.56-.18-.86.1-.55.59-.95,1.17-.95.08,0,.15,0,.23.02.32.06.6.24.78.5.17.26.24.56.18.86-.1.55-.6.95-1.17.95Z"/>
            <path class="cls-13" d="M20.09,29.62c.06,0,.13,0,.19.02.55.1.92.62.82,1.16-.09.47-.51.8-.99.8-.06,0-.13,0-.19-.02-.55-.1-.92-.62-.82-1.16.09-.47.51-.8.99-.8M20.09,29.27h0c-.66,0-1.22.46-1.34,1.09-.07.35,0,.7.21,1,.21.3.52.51.89.58.09.02.17.02.26.02.66,0,1.22-.46,1.34-1.09.07-.35,0-.7-.21-1-.21-.3-.52-.51-.89-.58-.09-.02-.17-.02-.26-.02h0Z"/>
          </g>
          <g>
            <g>
              <path class="cls-5" d="M35.21,11.21s-.06,0-.09-.02l-10.19-4.93c-.05-.03-.09-.07-.11-.13s0-.12.03-.16c.1-.16,2.62-3.91,6.12-3.95h.13c.72,0,1.43.17,2.13.52.08.04.13.06.16.09,4.35,2.26,2.02,8.39,2,8.45-.02.05-.06.09-.11.11-.02,0-.05.01-.07.01Z"/>
              <path class="cls-16" d="M31.1,2.22c.66,0,1.34.15,2.05.5.05.03.1.05.14.08,4.26,2.22,1.93,8.21,1.93,8.21l-1.38-.67-8.22-3.97-.59-.29s2.52-3.82,5.95-3.86c.04,0,.08,0,.13,0M31.1,1.82h-.14c-3.6.04-6.17,3.88-6.28,4.04-.06.1-.08.22-.05.33.03.11.11.2.21.26l.59.29,8.22,3.97,1.38.67c.06.03.11.04.17.04.05,0,.1,0,.15-.03.1-.04.19-.12.23-.23.02-.06,2.41-6.36-2.11-8.72,0,0-.07-.04-.14-.08-.73-.36-1.48-.54-2.23-.54h0Z"/>
            </g>
            <path class="cls-11" d="M35.21,11.01l-1.38-.67c-.15-.13-.28-.24-.42-.35-1.29-1.13,1.45-.91,1.65-1.88.2-.97-2.69-2.32-2.69-2.32,0,0,1.24-.03,1.57-.63.2-.35-.28-1.52-.66-2.36,4.26,2.22,1.93,8.21,1.93,8.21Z"/>
            <path class="cls-10" d="M30.97,2.22c-1.66.67-4.29,2.04-5.36,4.15l-.59-.29s2.52-3.82,5.95-3.86Z"/>
            <g>
              <path class="cls-4" d="M35.39,13.48c-.34,0-.75-.23-1.5-.65-.78-.44-1.96-1.1-3.73-1.87-3.8-1.64-8.29-2.79-8.34-2.8-.06-.02-.11-.06-.14-.12-.02-.06-.02-.12,0-.18.02-.03.48-.84,1.23-1.51.02-.02.05-.03.07-.04.65-.53,1.31-.79,1.96-.79h.14c1.89.1,8.39,2.85,10.08,4.27.31.26.55.52.76.82,0,0,.02.02.02.03.73,1.19.32,2.3-.21,2.71-.11.08-.23.12-.37.12Z"/>
              <path class="cls-16" d="M24.96,5.72s.09,0,.13,0c1.92.09,8.33,2.84,9.96,4.22.32.27.54.52.73.78t.02.02c.68,1.11.27,2.12-.16,2.45-.07.05-.15.08-.24.08-.6,0-1.81-1.06-5.15-2.51-3.86-1.67-8.37-2.81-8.37-2.81,0,0,.46-.8,1.19-1.46h.02c.51-.42,1.15-.79,1.88-.79M24.96,5.32h0c-.69,0-1.39.28-2.07.83-.03.02-.07.04-.09.06-.77.69-1.25,1.52-1.27,1.56-.06.11-.07.24-.02.36s.15.2.27.23c.04.01,4.53,1.16,8.31,2.79,1.76.76,2.93,1.42,3.71,1.86.78.44,1.21.68,1.6.68.18,0,.34-.05.48-.16.59-.47,1.05-1.69.26-2.98,0-.02-.02-.03-.03-.04-.22-.31-.47-.59-.79-.86-1.75-1.48-8.23-4.22-10.2-4.32-.05,0-.1,0-.15,0h0Z"/>
            </g>
            <path class="cls-10" d="M35.78,10.73c-2.8-1.81-8.74-4.2-10.09-4.59-.66-.21-1.69.05-2.6.37.53-.45,1.23-.83,2.01-.78,1.92.09,8.33,2.84,9.96,4.22.32.27.54.52.73.78Z"/>
            <ellipse class="cls-10" cx="25.61" cy="6.37" rx=".36" ry=".86" transform="translate(15.41 30.71) rotate(-81.23)"/>
            <ellipse class="cls-10" cx="25.6" cy="7.16" rx=".22" ry=".53" transform="translate(14.62 31.37) rotate(-81.23)"/>
            <g>
              <path class="cls-3" d="M33.98,4.56c-.29-.07-.4-.38-.43-.68-.13.09-.25.13-.39.13-.4-.06-.6-.37-.6-.82v-.02c-.23.12-.55.28-.84.28-.11,0-.22-.02-.3-.07-.17-.09-.22-.22-.23-.32-.03-.2.08-.42.24-.61-.42-.07-.8-.21-.9-.53-.04-.12-.02-.24.05-.34.11-.15.36-.25.73-.27-.13-.12-.22-.25-.24-.4-.02-.13.02-.25.11-.36.1-.12.25-.19.42-.19.23,0,.48.12.67.24.02-.07.06-.15.12-.22.08-.09.22-.2.46-.2.04,0,.08,0,.13,0,0,0,.1.02.11.02.39.09.62.33.74.52.08-.05.19-.08.31-.08.15,0,.31.05.47.16.08.06.13.11.18.16.02.02.04.06.05.09.21.33.23.77.23,1.03.03,0,.07,0,.1.01.3.05.67.16.93.47.13.16.1.3.07.37-.14.32-.87.45-1.38.49-.09.42-.3,1.1-.72,1.1-.01,0-.07,0-.08,0Z"/>
              <path class="cls-16" d="M32.83.4s.07,0,.11,0l.09.02c.56.13.73.64.73.64,0,0,.12-.21.37-.21.1,0,.22.03.35.13.06.05.11.1.16.15.01.02.01.04.01.04.23.33.21.86.2,1.04-.01.05-.02.07-.02.07,0,0,.13.01.3.03h.02c.26.04.57.15.78.4.36.43-1.32.55-1.32.55,0,0-.19,1.09-.55,1.09-.01,0-.03,0-.04,0-.31-.07-.31-.72-.26-1.02-.11.17-.33.47-.6.47-.02,0-.04,0-.06,0-.26-.04-.34-.35-.34-.61-.01-.19,0-.33,0-.37,0,0-.04,0-.07.04-.12.05-.61.39-.99.39-.08,0-.15-.01-.21-.05-.39-.22.22-.8.32-.91-.17-.02-.99-.06-1.12-.44-.09-.28.42-.35.81-.35.08,0,.14,0,.2,0,0,0,.02-.01.03-.01,0,0,0,0,0,0,.04,0,.07.01.09.01,0,0,.02,0,.02,0,0,0,.01,0,.02,0v-.02c-.16-.11-.85-.48-.57-.81.07-.08.17-.12.27-.12.37,0,.84.42.84.42,0,0-.1-.59.41-.59M32.83,0c-.32,0-.51.15-.62.27-.02.02-.03.04-.05.06-.18-.09-.38-.16-.58-.16-.23,0-.43.09-.57.26-.13.15-.18.33-.16.52.01.08.04.16.07.23-.37.08-.48.24-.52.3-.11.15-.13.34-.07.52.11.34.44.51.76.6-.09.16-.13.33-.11.51.03.2.15.36.33.46.13.07.26.1.41.1.23,0,.46-.08.67-.17.07.39.31.66.65.72.04,0,.08,0,.12,0,.08,0,.16-.01.24-.04.08.28.24.51.53.58.03,0,.1.01.13.01.48,0,.74-.55.88-1.12,1.2-.13,1.35-.48,1.4-.6.08-.19.05-.4-.1-.58-.29-.34-.69-.48-.99-.53,0-.28-.06-.63-.23-.92-.01-.03-.03-.06-.04-.09-.01-.02-.03-.04-.05-.06-.06-.06-.11-.12-.19-.18-.21-.15-.41-.22-.6-.22-.09,0-.17.01-.24.04-.17-.2-.42-.39-.76-.47l-.09-.02c-.09-.01-.14-.02-.19-.02h0Z"/>
            </g>
            <path class="cls-10" d="M31.32.69c.33-.39,1.11.31,1.11.31,0,0-.11-.67.51-.59l.09.02c-.11.07-.25.17-.29.28-.11.23,0,.46,0,.46,0,0-.72-.44-.89-.33-.18.11.35.65.35.65,0,0-.13-.01-.31,0-.15-.11-.84-.48-.56-.81Z"/>
            <path class="cls-10" d="M32.71,2.87c-.15.06-.82.53-1.2.34-.39-.22.22-.8.32-.91-.17-.02-.99-.06-1.12-.44-.11-.34.65-.37,1.01-.34-.29.03-.59.11-.52.29.12.32.77.28.87.29-.08.11-.53.66-.29.77.28.12.96-.28.96-.28,0,0-.05.14-.03.29Z"/>
            <path class="cls-10" d="M34.41,2.13s.3-.47.23-.94c.23.33.21.86.2,1.04-.23-.07-.43-.1-.43-.1Z"/>
            <path class="cls-10" d="M34.61,3.28s-.21,1.17-.59,1.08c-.31-.07-.31-.72-.26-1.02-.12.18-.36.51-.66.46-.26-.04-.34-.35-.34-.61.04.08.12.16.23.18.45.1.96-.61.96-.61,0,0-.14.71.15.75.28.04.39-.45.39-.45,0,0,1.18-.08,1-.46-.07-.13-.2-.21-.34-.28.26.04.57.15.78.4.36.43-1.32.55-1.32.55Z"/>
          </g>
          <ellipse class="cls-1" cx="24.49" cy="12.68" rx="1.01" ry="1.04" transform="translate(8.48 35.14) rotate(-81.9)"/>
          <ellipse class="cls-1" cx="29.5" cy="14.15" rx="1.01" ry="1.04" transform="translate(11.33 41.36) rotate(-81.9)"/>
          <path class="cls-1" d="M25.99,16.01s-1.01-1.17-.34-1.06,1.77.44,1.66.66-1.32.41-1.32.41Z"/>
          <g>
            <line class="cls-14" x1="26.04" y1="15.8" x2="25.51" y2="17.1"/>
            <path class="cls-1" d="M26.19,15.85l-.67,1.25.39-1.37c.06-.21.39-.08.28.12h0Z"/>
          </g>
          <path class="cls-1" d="M23.78,15.69c1.27,1.26,2.82,1.43,4.47,1.4-1.44,1.23-4.17.58-4.47-1.4h0Z"/>
          <ellipse class="cls-9" cx="30.96" cy="17.32" rx=".85" ry="1.41" transform="translate(9.45 45.54) rotate(-81.9)"/>
          <ellipse class="cls-9" cx="21.5" cy="14.55" rx=".85" ry="1.41" transform="translate(4.07 33.79) rotate(-81.9)"/>
          <g>
            <g>
              <path class="cls-2" d="M33.03,26.85s-.4-.12-.49-.45c-.06-.24.06-.5.35-.79l4.52-1.96c.06-.44.31-1.92,1.01-2.31.07-.06.18-.09.32-.1h0c.21,0,.34.07.43.2.31.45,0,1.62-.21,2.25.41-.13,1.09-.33,1.6-.33.38,0,.62.11.72.32.06.11.06.24,0,.37-.17.42-.99.82-1.53,1.04.49.2,1.22.55,1.42.98.07.16.08.32.02.47-.08.16-.21.24-.38.27-.04,0-.1.01-.16.01-.85,0-2.68-1.04-3.06-1.25l-4.48,1.27s-.03,0-.05,0-.03,0-.05,0Z"/>
              <path class="cls-13" d="M38.78,21.42c.85,0-.1,2.56-.1,2.56,0,0,1.16-.43,1.89-.43.27,0,.48.06.56.22.3.59-1.88,1.34-1.88,1.34,0,0,2.09.65,1.79,1.38-.05.09-.12.14-.24.16-.04,0-.09.01-.14.01-.89,0-3.04-1.27-3.04-1.27l-4.55,1.29s-.79-.23-.06-.94l4.56-1.97s.22-1.88.94-2.27c.07-.05.16-.07.24-.08.01,0,.02,0,.03,0M38.78,21.07s-.05,0-.06,0c-.16,0-.31.06-.43.15-.69.38-.96,1.74-1.05,2.31l-4.38,1.89s-.08.04-.11.07c-.34.33-.47.65-.39.96.11.42.56.56.61.57.03,0,.06.01.1.01s.07,0,.1-.01l4.4-1.25c.52.3,2.23,1.24,3.09,1.24.08,0,.15,0,.21-.02.21-.03.38-.15.48-.34.09-.22.09-.43,0-.64-.18-.38-.68-.69-1.14-.91.52-.25,1.09-.59,1.25-.97.07-.17.06-.36-.02-.52-.13-.27-.42-.42-.87-.42-.41,0-.92.12-1.33.24.21-.72.39-1.64.08-2.08-.12-.18-.32-.28-.54-.28h0Z"/>
            </g>
            <path class="cls-17" d="M39.25,25.1c-.23-.11-.39-.17-.39-.17,0,0,1.96-.43,1.85-1-.1-.54-2.3.15-2.53.22.06-.17.6-1.42.58-2.08,0-.29-.12-.47-.25-.57.07-.05.16-.07.24-.08.9-.06-.07,2.56-.07,2.56,0,0,2.17-.81,2.44-.21.3.59-1.88,1.34-1.88,1.34Z"/>
            <path class="cls-17" d="M41.04,26.48c-.05.09-.12.14-.24.16-.05-.68-1.01-1.25-1.55-1.54,0,0,2.09.65,1.79,1.38Z"/>
          </g>
          <path class="cls-15" d="M34.81,16.37c-1.14,3.58-5.55,6.85-9.66,6.1-2.13-.4-3.78-1.79-4.82-3.57,9.55,3.41,13.19-.19,14.48-2.53Z"/>
        </g>
        <g>
          <path class="cls-18" d="M8.23,35.22c.15.09.27.15.38.23.18.11.24.32.14.49-.09.17-.31.23-.49.14-.06-.03-.12-.07-.18-.11-.06-.03-.12-.07-.22-.12.05.19.09.34.13.5.07.26-.02.45-.23.51-.22.06-.39-.06-.46-.32-.1-.36-.19-.72-.3-1.07-.03-.09-.1-.16-.15-.24-.02.01-.04.02-.07.03.05.18.1.36.14.55.05.27-.16.49-.43.43-.15-.03-.24-.14-.28-.28-.08-.31-.18-.61-.24-.92-.05-.24-.16-.39-.39-.5-.14-.07-.25-.11-.37.01-.04.04-.11.06-.17.09-.03.02-.07.03-.09.06-.06.09,0,.56.08.64.27.27.54.53.81.8.19.19.2.4.04.56-.15.15-.37.14-.55-.04-.12-.12-.22-.26-.33-.38l-.09.07c.04.09.06.19.12.25.27.29.56.56.84.84.12.12.15.25.09.4-.06.14-.18.23-.33.21-.1-.01-.21-.07-.29-.14-.12-.11-.23-.24-.34-.36-.02,0-.04.02-.06.02,0,.12,0,.24,0,.35,0,.25-.14.41-.36.42-.22,0-.36-.16-.36-.41,0-.12,0-.23,0-.41-.16.16-.28.29-.41.41-.18.17-.43.16-.56-.01-.12-.16-.1-.35.06-.51.27-.27.54-.53.8-.8.07-.07.1-.18.15-.27-.02-.01-.04-.03-.06-.04-.12.12-.24.23-.36.35-.19.18-.41.2-.56.04-.15-.16-.14-.37.05-.56.26-.25.51-.51.77-.76.11-.1.2-.55.11-.66-.06-.08-.19-.1-.26-.17-.13-.12-.22-.07-.36-.01-.23.1-.35.26-.4.51-.06.31-.16.61-.24.91-.07.23-.26.35-.47.29-.19-.05-.29-.25-.23-.47.02-.09.05-.17.07-.26.02-.08.04-.16.06-.24-.02-.01-.03-.02-.05-.04-.06.07-.14.13-.17.21-.11.37-.2.74-.31,1.11-.07.25-.24.36-.45.31-.22-.05-.31-.25-.24-.51.04-.16.08-.31.13-.51-.15.09-.26.15-.38.22-.2.1-.41.05-.51-.12-.1-.17-.04-.38.15-.5.11-.07.22-.13.37-.22-.2-.06-.36-.1-.52-.14-.25-.07-.37-.25-.31-.47.06-.2.25-.29.5-.23.37.09.73.2,1.1.29.09.02.19,0,.29-.02,0-.02,0-.05,0-.07-.18-.05-.37-.09-.55-.15-.21-.07-.3-.25-.25-.44.05-.19.23-.29.44-.25.04,0,.08.02.12.03.34.09.67.18,1.01.27.14.04.58-.12.63-.24.03-.08,0-.18,0-.28,0-.09,0-.23-.04-.25-.18-.09-.33-.3-.58-.22-.36.11-.73.2-1.09.29-.24.06-.43-.03-.48-.23-.06-.21.05-.39.29-.46.16-.05.33-.09.51-.14-.09-.11-.18-.12-.3-.09-.36.1-.73.2-1.09.29-.24.06-.45-.03-.5-.23-.06-.22.06-.4.31-.47.15-.04.3-.08.44-.12.01,0,.02-.01.05-.03-.12-.07-.23-.14-.34-.21-.19-.12-.25-.32-.15-.5.1-.17.31-.23.51-.13.12.06.23.13.39.22-.05-.2-.1-.36-.14-.53-.06-.25.03-.43.25-.49.21-.05.39.06.45.31.1.36.19.73.3,1.09.03.09.1.16.16.24.02-.01.04-.02.06-.03-.04-.16-.09-.31-.13-.47-.06-.25.02-.45.22-.51.22-.07.41.06.48.32.08.3.18.6.24.91.05.22.14.38.36.46.08.03.18.12.23.1.15-.05.29-.14.41-.24.08-.07.01-.56-.08-.65-.28-.28-.56-.55-.84-.84-.15-.15-.15-.36,0-.51.14-.14.35-.15.51-.01.04.03.07.06.1.1.09.11.18.21.28.32.03-.02.06-.03.08-.05-.03-.08-.05-.19-.11-.25-.28-.29-.57-.57-.85-.85-.12-.12-.15-.27-.08-.42.07-.14.2-.22.35-.19.1.02.2.08.27.14.12.11.22.24.33.36l.06-.03c0-.13,0-.25,0-.38,0-.24.15-.39.36-.39.21,0,.36.16.36.39,0,.12,0,.24,0,.43.16-.16.28-.28.4-.4.15-.14.31-.17.47-.09.22.12.25.39.06.59-.27.28-.56.54-.83.83-.06.07-.09.17-.13.25.02.01.04.03.06.04.11-.11.22-.22.33-.32.21-.21.43-.23.59-.06.16.16.13.37-.07.57-.26.25-.51.51-.77.76-.09.09-.18.56-.1.65.07.07.19.09.27.16.13.12.22.07.36.01.24-.1.34-.27.39-.51.06-.31.16-.6.24-.91.06-.23.24-.34.45-.29.2.05.31.24.25.47-.04.17-.09.34-.13.51.02.01.04.02.06.03.06-.08.14-.15.16-.23.11-.36.2-.73.3-1.09.07-.25.25-.37.47-.31.21.06.3.25.23.5-.04.15-.08.31-.12.46,0,0,0,0,.02.03.11-.06.22-.13.33-.18.21-.11.42-.07.53.11.11.18.04.39-.17.52-.1.06-.2.12-.34.2.2.05.36.1.52.14.26.07.37.25.31.46-.06.2-.25.29-.5.23-.37-.09-.73-.2-1.1-.28-.09-.02-.19,0-.29.01,0,.02,0,.05,0,.07.18.05.37.09.55.15.29.1.37.44.13.61-.09.06-.24.09-.34.07-.37-.08-.74-.19-1.11-.29-.13-.04-.57.12-.63.24-.03.07,0,.16,0,.24-.04.19.01.32.2.4.15.06.28.17.48.1.34-.12.69-.19,1.04-.28.24-.06.43.03.49.23.06.21-.05.39-.29.46-.17.05-.34.09-.5.14,0,.02,0,.05,0,.07.1,0,.21.04.3.01.37-.09.73-.19,1.1-.29.24-.06.45.04.5.24.05.22-.06.38-.31.45-.16.05-.32.09-.52.14Z"/>
          <path class="cls-14" d="M8.23,35.23c.15.09.29.16.43.26.33.25.01.78-.37.62,0,0-.45-.24-.45-.24h.02c.05.25.19.49.14.77-.06.29-.51.36-.65.1-.25-.48-.21-1.07-.53-1.49,0,0,.02,0,.02,0l-.07.03c.01-.1.12.45.13.44.19.69-.74.75-.78.07-.13-.34-.16-1.08-.56-1.22-.22-.17-.41.05-.6.15-.05.18-.02.5.11.63.18.23.93.79.94,1.07.02.4-.53.54-.74.23,0,0-.31-.36-.31-.36h.05s-.09.07-.09.07v-.05c.21.48.72.74,1.04,1.17.17.25-.07.67-.39.59-.3-.07-.43-.33-.62-.51.09.02.03.01,0,.03.05-.14.03.36.01.47-.08.43-.76.39-.79-.05-.02-.18,0-.34,0-.51l.09.04c-.21.17-.33.41-.63.53-.31.11-.64-.27-.47-.57.31-.47.83-.71,1.06-1.2,0,0,.02.06.02.06-.04-.04-.11-.04,0-.05,0,0-.34.33-.34.33-.23.3-.78.2-.77-.23,0-.31.74-.85.93-1.08.1-.14.19-.44.11-.61-.18-.1-.36-.31-.58-.16-.61.3-.33,1.21-.78,1.64-.33.24-.74-.15-.59-.5,0,0,.12-.46.12-.46,0,0,.01.04.01.04-.03-.03-.08-.04,0-.04-.23.17-.2.46-.3.71-.08.26-.11.51-.24.77-.15.27-.62.2-.69-.1-.05-.29.1-.53.14-.8l.04.03c-.27.16-.69.47-.93.09-.22-.39.25-.6.53-.76,0,0,0,.05,0,.05-.25-.09-.53-.09-.76-.28-.23-.21-.05-.64.26-.63.54.03,1.03.37,1.57.29,0,0-.02.02-.02.02v-.07s.02.02.02.02l-.46-.13c-.37-.03-.51-.55-.16-.72.23-.14,1.12.23,1.4.27.14.02.31-.04.44-.1.27-.08.15-.39.15-.6-.14-.11-.39-.33-.6-.24,0,0-.92.25-.92.25-.63.3-1.02-.54-.31-.72,0,0,.46-.12.46-.12,0,0-.02.05-.02.05-.08-.11-.2-.11-.33-.06-.39.09-.79.24-1.19.3-.31.04-.54-.39-.32-.62.21-.22.53-.18.75-.31,0,0,0,.06,0,.06-.14-.09-.29-.16-.43-.27-.33-.28.03-.83.42-.65.16.07.3.16.45.24,0,0-.06.04-.06.04-.04-.26-.19-.5-.15-.8.07-.31.55-.39.71-.11.26.49.2,1.07.54,1.49,0,0-.06-.01-.06-.01,0,0,.06-.03.06-.03,0,0-.02.05-.02.05l-.12-.46c-.15-.35.25-.77.6-.52.25.17.36,1.07.48,1.35.05.19.34.32.48.38,0,0,.2-.11.2-.11.15-.1.24-.06.21-.3,0-.47-.39-.62-.79-1.08-.3-.21-.42-.67.02-.83.38-.11.57.3.79.52,0,0-.07-.01-.07-.01l.08-.05-.02.07c-.16-.48-.72-.75-1.02-1.18-.18-.27.08-.69.41-.61.31.08.43.34.63.52h-.06s.06-.04.06-.04l-.03.05c-.02-.32-.02-.86.45-.82.46.03.39.56.39.87,0,0-.1-.04-.1-.04.21-.17.33-.41.63-.54.32-.1.64.27.48.57-.31.47-.84.71-1.05,1.21,0,0-.02-.07-.02-.07l.06.04s-.07,0-.07,0l.33-.32c.49-.54,1.13.18.56.63-.44.49-.88.65-.84,1.24,0,.11.26.15.32.24.17.08.41-.1.51-.24.2-.39.22-.89.4-1.31.18-.36.78-.22.78.19,0,.25-.1.44-.15.67,0,0-.03-.07-.03-.07l.06.03-.08.02c.34-.41.28-.99.53-1.48.15-.29.64-.23.73.08.07.29-.11.58-.11.76l-.07-.02c.27-.17.72-.44.93-.04.2.4-.27.61-.55.77,0,0-.01-.08-.01-.08.25.1.53.09.77.28.24.22.05.67-.27.66-.55-.03-1.03-.36-1.56-.29,0,0,.03-.03.03-.03v.07s-.03-.04-.03-.04l.46.13c.37.03.54.59.15.74-.25.13-1.11-.22-1.4-.26-.18,0-.49.07-.6.24,0,.19-.09.51.18.59.15.07.28.16.43.11l.92-.25c.62-.3,1.01.52.31.7,0,0-.46.12-.46.12.02-.05,0,.05.01.05.18.03.53-.05.77-.12.26-.06.51-.16.79-.18.3,0,.47.4.25.6-.22.18-.5.17-.75.26h0ZM8.22,35.22c.25-.09.55-.1.75-.27.21-.19.04-.58-.24-.57-.53.03-1.05.38-1.58.29,0-.01,0-.07,0-.09,0,0,.01,0,.01,0,.28-.11.69-.08.79-.4.06-.39-.33-.49-.62-.35-.64.14-.96.41-1.38.14-.3-.09-.22-.41-.22-.64.14-.22.41-.28.66-.28.26.03,1.14.38,1.36.26.14-.05.22-.21.18-.35-.09-.3-.5-.28-.78-.39h-.03s0-.04,0-.04v-.07s.01-.03.04-.03c.52-.08,1.05.26,1.56.29.26.01.4-.35.21-.52-.21-.17-.56-.18-.82-.29.16-.1.35-.2.5-.31.28-.2.05-.65-.28-.53-.14.04-.29.15-.43.23l-.07.03c-.05-.32.17-.59.09-.83-.06-.22-.43-.28-.54-.06-.1.21-.15.5-.23.74-.07.25-.13.62-.34.78-.02-.02-.08-.04-.1-.06-.07-.03-.03-.03.03-.27.03-.15.1-.3.09-.43,0-.3-.42-.39-.55-.13-.24.51-.21,1.81-1.08,1.59-.12-.14-.33-.11-.37-.32-.01-.09,0-.17.01-.25.02-.14.07-.34.2-.44l.66-.65c.24-.17.28-.53-.04-.62-.26-.04-.46.29-.69.48-.04.03-.03.03-.07,0-.09-.06-.11-.04-.08-.11.2-.49.77-.78,1.05-1.21.13-.22-.12-.48-.34-.41-.24.1-.44.42-.68.59-.04-.3.13-.84-.29-.88-.39-.02-.32.43-.33.71,0,.04,0,.04-.03.05-.02.01-.07.03-.09.04-.2-.18-.35-.46-.6-.52-.22-.06-.42.26-.29.44.26.35.96.82,1.03,1.19.02.07,0,.04-.14.14-.22-.21-.41-.61-.71-.52-.34.14-.23.47.02.65,0,0,.67.67.67.67.14.18.22.56.09.75,0,0-.21.12-.21.12l-.22.12c-.22-.02-.54-.22-.61-.44,0,0-.25-.92-.25-.92-.03-.3-.29-.59-.57-.36-.22.22.01.59.05.89-.03.02-.09.05-.12.06-.37-.4-.32-1.06-.56-1.52-.12-.22-.5-.16-.56.08-.05.26.12.56.16.84,0,0-.07-.04-.07-.04-.25-.13-.61-.44-.83-.12-.21.35.23.52.47.67,0,0,.05.03.05.03-.25.16-.6.13-.78.32-.18.19,0,.54.26.51.25-.03.52-.13.78-.19.23-.03.61-.28.79-.02.03.04.02.03-.02.05-.28.11-.69.08-.79.39-.03.14.03.31.17.37.23.12,1.1-.23,1.37-.27.26-.08.48.11.66.27.01.23.11.56-.17.65-.44.25-.94-.06-1.39-.14-.58-.28-.95.46-.3.63,0,0,.46.13.46.13.02,0,.02,0,.01.02,0,0,0,.07,0,.07h0c-.27.1-.55-.04-.81-.09-.26-.05-.52-.16-.77-.17-.27-.01-.42.37-.23.55.21.17.53.18.79.28,0,0-.05.03-.05.03-.14.09-.3.17-.43.26-.29.23-.01.7.33.56.16-.08.33-.19.5-.27-.04.28-.2.56-.15.83.06.25.45.31.57.08.22-.4.23-1.26.57-1.51.02.02.06.05.09.07-.04.3-.28.66-.04.88.86.44.47-1.46,1.18-1.64.29-.15.34-.04.68.18.11.25.03.51-.11.73-.16.21-.9.76-.9,1.03-.01.13.1.27.23.3.28.06.48-.29.71-.48.04-.03.03-.03.06,0,.02,0,.07.05.09.06,0,0-.01.04-.01.04-.21.49-.77.78-1.05,1.2-.12.21.12.5.35.42.24-.09.44-.4.67-.57,0,.19,0,.41,0,.6.02.34.54.38.6.04.03-.15,0-.35.02-.52.03-.01.08-.03.11-.04.2.17.35.45.6.5.24.07.44-.27.3-.46-.31-.42-.87-.71-1.04-1.22.03-.02.11-.08.14-.1.22.2.39.61.71.53.13-.04.25-.18.24-.32,0-.26-.75-.83-.91-1.04-.15-.19-.18-.49-.11-.71.15-.08.29-.21.43-.24.66.07.66.84.82,1.34.03.63.87.59.69-.05,0,0-.11-.46-.11-.46,0-.02,0-.02.01-.02,0,0,.07-.04.08-.04,0,0,.01.01.01.01.32.42.29,1.03.52,1.49.13.24.54.18.6-.09.07-.21-.19-.78-.12-.78,0,0,.45.24.45.24.36.15.67-.35.35-.59-.14-.1-.29-.18-.44-.27h0Z"/>
        </g>
      </g>
    </g>
  </g>
</svg>