<?xml version="1.0" encoding="UTF-8"?>
<svg xmlns="http://www.w3.org/2000/svg" xmlns:xlink="http://www.w3.org/1999/xlink" viewBox="0 0 22.43 14.77">
  <defs>
    <style>
      .cls-1 {
        fill: url(#linear-gradient-8);
      }

      .cls-2 {
        fill: url(#linear-gradient-7);
      }

      .cls-3 {
        fill: url(#linear-gradient-5);
      }

      .cls-4 {
        fill: url(#linear-gradient-6);
      }

      .cls-5 {
        fill: url(#linear-gradient-4);
      }

      .cls-6 {
        fill: url(#linear-gradient-3);
      }

      .cls-7 {
        fill: url(#linear-gradient-2);
      }

      .cls-8 {
        fill: #c3d0e0;
      }

      .cls-9, .cls-10 {
        fill: #202020;
        mix-blend-mode: overlay;
      }

      .cls-11 {
        fill: url(#radial-gradient);
      }

      .cls-12 {
        fill: url(#linear-gradient);
      }

      .cls-13 {
        isolation: isolate;
      }

      .cls-10 {
        opacity: .4;
      }

      .cls-14 {
        fill: #abb9cf;
      }
    </style>
    <linearGradient id="linear-gradient" x1="17.78" y1="2.14" x2="25.82" y2="30.61" gradientUnits="userSpaceOnUse">
      <stop offset="0" stop-color="#f0f3f5"/>
      <stop offset="1" stop-color="#e8f1ff"/>
    </linearGradient>
    <linearGradient id="linear-gradient-2" x1="17.78" y1="2.14" x2="25.82" y2="30.6" xlink:href="#linear-gradient"/>
    <linearGradient id="linear-gradient-3" x1="18.31" y1="2.64" x2="23.03" y2="14.05" gradientUnits="userSpaceOnUse">
      <stop offset="0" stop-color="#fff"/>
      <stop offset="0" stop-color="#fff" stop-opacity=".99"/>
      <stop offset=".08" stop-color="#fff" stop-opacity=".78"/>
      <stop offset=".16" stop-color="#fff" stop-opacity=".6"/>
      <stop offset=".24" stop-color="#fff" stop-opacity=".44"/>
      <stop offset=".33" stop-color="#fff" stop-opacity=".3"/>
      <stop offset=".42" stop-color="#fff" stop-opacity=".19"/>
      <stop offset=".52" stop-color="#fff" stop-opacity=".11"/>
      <stop offset=".63" stop-color="#fff" stop-opacity=".05"/>
      <stop offset=".76" stop-color="#fff" stop-opacity=".01"/>
      <stop offset=".95" stop-color="#fff" stop-opacity="0"/>
    </linearGradient>
    <linearGradient id="linear-gradient-4" x1="9.03" y1="4.61" x2="17.08" y2="33.08" xlink:href="#linear-gradient"/>
    <linearGradient id="linear-gradient-5" x1="9.03" y1="4.61" x2="17.08" y2="33.08" xlink:href="#linear-gradient"/>
    <linearGradient id="linear-gradient-6" x1="9.25" y1="4.84" x2="16.4" y2="22.12" xlink:href="#linear-gradient-3"/>
    <radialGradient id="radial-gradient" cx="8.8" cy="3.67" fx="8.8" fy="3.67" r="5.57" gradientUnits="userSpaceOnUse">
      <stop offset=".33" stop-color="#fcc092"/>
      <stop offset=".39" stop-color="#f7bc8f"/>
      <stop offset=".64" stop-color="#e9b086"/>
      <stop offset=".85" stop-color="#e4ad84"/>
    </radialGradient>
    <linearGradient id="linear-gradient-7" x1="17.57" y1="6.93" x2="19.83" y2="14" xlink:href="#linear-gradient-3"/>
    <linearGradient id="linear-gradient-8" x1="16.09" y1="7.4" x2="18.36" y2="14.47" xlink:href="#linear-gradient-3"/>
  </defs>
  <g class="cls-13">
    <g id="Layer_2" data-name="Layer 2">
      <g id="Layer_1-2" data-name="Layer 1">
        <g>
          <g>
            <path class="cls-12" d="M18.58,9.34c-.6.2-1.27.31-1.98.3-.41,0-.75-.34-.75-.75,0-.41.34-.75.75-.75,2.75,0,3.57-1.91,3.8-2.74.35-1.28.06-2.67-.66-3.09-.43-.25-.7-.2-.86-.14-.62.23-1.15,1.23-1.3,1.68-.14.39-.56.6-.96.46-.39-.14-.6-.56-.46-.96.07-.21.75-2.07,2.21-2.6.48-.17,1.24-.27,2.14.26,1.32.78,1.89,2.79,1.34,4.78-.48,1.76-1.66,3-3.27,3.54Z"/>
            <path class="cls-14" d="M18.59,9.37c-.88.22-2.75.92-2.9-.52-.02-.44.34-.88.81-.95,2.18-.03,3.82-1.65,3.84-3.77.09-.89-.57-2.36-1.6-1.77-.59.43-.83,1.1-1.11,1.75-.23.37-.76.53-1.18.33-.92-.42-.47-1.55-.08-2.21.66-1.41,2.42-2.51,3.96-1.76,3.84,1.93,1.92,7.99-1.74,8.89h0ZM18.57,9.3c2.73-.85,3.8-4.4,2.72-6.81-.49-1.15-1.91-1.88-3.03-1.31-.85.42-1.48,1.37-1.85,2.25-.24.56.58,1,.95.5.31-.61.63-1.35,1.25-1.76.71-.5,1.63.14,1.88.85,1.12,2.66-1.01,5.75-3.94,5.35-.25,0-.5.21-.53.49.02,1.17,1.82.6,2.55.43h0Z"/>
          </g>
          <path class="cls-7" d="M21.85,5.8c-.48,1.76-1.65,3-3.27,3.54-.28.09-.57.17-.88.22-.35.06-.72.09-1.1.09-.41-.01-.75-.34-.75-.76s.34-.75.75-.75c2.75.01,3.58-1.91,3.8-2.73.36-1.29.06-2.67-.65-3.1-.43-.25-.7-.2-.86-.14-.28.1-.53.36-.75.65-.18.24-.33.51-.43.73-.05.11-.09.22-.12.3-.14.39-.57.6-.96.47-.16-.06-.29-.16-.37-.29-.13-.19-.17-.44-.09-.67.07-.21.75-2.07,2.2-2.6.48-.17,1.24-.27,2.14.26,1.33.78,1.89,2.79,1.34,4.78Z"/>
          <path class="cls-6" d="M21.85,5.8c-.48,1.76-1.65,3-3.27,3.54-.28.09-.57.17-.88.22,3.94-1.28,4.54-4.79,3.77-6.73-.83-2.09-3.25-1.83-3.44-1.41-.12.25,0,.92.11,1.4-.18.24-.33.51-.43.73l-1.45.48c-.13-.19-.17-.44-.09-.67.07-.21.75-2.07,2.2-2.6.48-.17,1.24-.27,2.14.26,1.33.78,1.89,2.79,1.34,4.78Z"/>
          <g>
            <path class="cls-5" d="M.14,5.8S10.84,3.09,17.04.45c0,0,4.22,10.73-4.69,13.45C2.94,16.79.14,5.8.14,5.8Z"/>
            <path class="cls-14" d="M.11,5.78C5.65,3.91,11.5,2.31,16.99.32c.07-.03.16,0,.19.07,1.85,5.5,1.65,12.06-4.91,13.93C5.93,16.26,1.44,11.64.11,5.78H.11ZM.17,5.81c1.98,5.3,5.84,9.5,11.88,7.77,5.98-1.41,6.87-8.08,4.85-13.08,0,0,.19.08.19.08C11.73,3.05,5.96,4.7.17,5.81H.17Z"/>
          </g>
          <path class="cls-3" d="M14.33,13.07c-.57.33-1.22.61-1.97.84-1.83.56-3.41.6-4.77.28-2.49-.55-4.24-2.25-5.41-3.99C.71,8.02.14,5.8.14,5.8.14,5.8,8.4,3.71,14.62,1.42c.86-.32,1.68-.64,2.43-.96,0,0,3.53,9.01-2.72,12.61Z"/>
          <path class="cls-9" d="M12.36,13.91c-5.19,1.59-8.37-1.03-10.18-3.71,1.61.91,3.76,1.41,6.61.93,5.42-.9,6.15-5.82,5.83-9.71.86-.32,1.68-.64,2.43-.96,0,0,4.21,10.73-4.69,13.45Z"/>
          <path class="cls-4" d="M14.33,13.07c1.07-.9,2.44-2.47,2.84-4.83.68-4.05-.51-6.66-.51-6.66,0,0-1.96,1.91-7.17,3.72-5.21,1.81-8.11,1.77-8.11,1.77,0,0,1.88,3.7,3.64,5.51.62.63,1.59,1.18,2.57,1.61-2.49-.55-4.24-2.25-5.41-3.99C.71,8.02.14,5.8.14,5.8.14,5.8,8.4,3.71,14.62,1.42c.86-.32,1.68-.64,2.43-.96,0,0,3.53,9.01-2.72,12.61Z"/>
          <g>
            <path class="cls-8" d="M17.08.32c.08.23-.23.58-.84.99-1.3.89-3.98,2.09-7.15,3.15s-6.18,1.75-7.73,1.79c-.66.02-1.07-.07-1.15-.29-.24-.73,3.34-2.58,7.99-4.14S16.84-.4,17.08.32Z"/>
            <path class="cls-14" d="M17.12.31c.05.44-.4.67-.67.92-3.44,2.54-7.6,3.79-11.74,4.62-1.33.25-2.66.62-4.03.55-.19-.04-.46-.02-.65-.37-.09-.4.14-.55.26-.73,2.2-1.94,5.1-2.86,7.8-3.86C10.82.6,13.71-.13,16.6.02c.18.05.42.07.52.29h0ZM17.05.34c-.2-.28-.67-.25-1.02-.24-2.65.26-5.16,1.33-7.69,2.12-2.49.88-5.04,1.72-7.3,3.1-.22.13-.57.42-.63.59.11.15.62.19.86.19,2.68-.03,5.24-1.01,7.72-1.93,0,0,4.29-1.57,4.29-1.57,1.22-.49,2.54-.92,3.54-1.81.12-.13.27-.3.22-.46h0Z"/>
          </g>
          <path class="cls-8" d="M17.08.32c.08.23-.23.58-.84.99-1.3.89-3.98,2.09-7.15,3.15s-6.18,1.75-7.73,1.79c-.66.02-1.07-.07-1.15-.29-.24-.73,3.34-2.58,7.99-4.14S16.84-.4,17.08.32Z"/>
          <path class="cls-11" d="M16.24,1.32c-1.3.89-3.98,2.09-7.15,3.15-3.26,1.09-6.19,1.75-7.73,1.79.14-.35.66-.81,1.44-1.3,1.27-.79,3.25-1.69,5.55-2.46,2.14-.71,4.12-1.17,5.58-1.34,1.14-.13,1.96-.08,2.31.16Z"/>
          <path class="cls-10" d="M16.24,1.32c-1.3.89-3.98,2.09-7.15,3.15-3.26,1.09-6.19,1.75-7.73,1.79.14-.35.66-.81,1.44-1.3,1.03-.09,2.19-.26,3.5-.53,3.85-.8,6.2-2.04,7.63-3.27,1.14-.13,1.96-.08,2.31.16Z"/>
          <ellipse class="cls-2" cx="17.23" cy="5.89" rx=".76" ry="1.56"/>
          <ellipse class="cls-1" cx="16.13" cy="7.51" rx=".46" ry=".77"/>
        </g>
      </g>
    </g>
  </g>
</svg>