<?xml version="1.0" encoding="UTF-8"?>
<svg id="Layer_2" data-name="Layer 2" xmlns="http://www.w3.org/2000/svg" viewBox="0 0 13.26 12.71">
  <defs>
    <style>
      .cls-1 {
        fill: #92d9f8;
      }

      .cls-2 {
        fill: #fff;
      }
    </style>
  </defs>
  <g id="Layer_1-2" data-name="Layer 1">
    <g>
      <g>
        <path class="cls-1" d="M9.24,10.96c.09.21.17.37.23.54.1.26,0,.53-.23.63-.23.11-.5,0-.63-.23-.04-.08-.07-.17-.11-.25-.04-.08-.08-.17-.14-.3-.09.24-.17.44-.25.63-.13.33-.37.47-.64.36-.28-.1-.37-.37-.25-.69.17-.46.35-.91.51-1.37.04-.11.02-.25.02-.38-.03,0-.06-.01-.1-.02-.09.23-.17.46-.28.69-.15.33-.55.39-.79.13-.14-.15-.15-.33-.08-.52.15-.39.28-.79.45-1.17.14-.29.13-.54-.02-.83-.1-.18-.18-.31-.41-.27-.08.01-.17-.02-.25-.03-.05,0-.1-.02-.14,0-.14.05-.43.59-.41.74.08.49.16.98.24,1.47.06.35-.09.58-.39.63-.28.04-.5-.13-.55-.47-.03-.22-.04-.44-.05-.66h-.15c-.02.12-.08.25-.06.37.07.51.16,1.03.24,1.54.03.21-.03.39-.22.5-.18.11-.37.11-.52-.03-.1-.09-.17-.24-.2-.37-.05-.21-.06-.43-.08-.64-.03,0-.05-.01-.08-.02-.09.13-.18.25-.27.38-.2.27-.47.33-.7.17-.24-.17-.26-.45-.07-.72.09-.13.18-.25.32-.44-.29.04-.52.08-.75.11-.32.04-.58-.16-.59-.45,0-.26.16-.45.45-.5.49-.08.98-.14,1.47-.23.13-.02.24-.11.36-.17-.01-.03-.02-.06-.03-.09-.22.03-.43.06-.65.09-.35.05-.59-.1-.63-.39-.04-.29.14-.5.49-.55.47-.07.94-.14,1.4-.21.19-.03.64-.43.63-.61,0-.13-.13-.25-.15-.38-.04-.22-.18-.25-.37-.29-.33-.07-.57.01-.82.24-.3.28-.63.52-.96.78-.25.2-.54.17-.72-.06-.16-.2-.11-.48.12-.68.09-.08.18-.15.27-.22.08-.07.17-.14.25-.2,0-.03-.01-.05-.02-.08-.11.03-.25.03-.34.1-.4.3-.79.63-1.18.94-.26.21-.54.2-.72-.02-.19-.23-.14-.51.13-.73.17-.14.33-.27.54-.44-.23-.03-.4-.04-.57-.07-.29-.04-.48-.26-.45-.52.03-.26.25-.44.55-.42.17.01.34.03.56.05-.17-.21-.3-.38-.44-.55-.22-.27-.2-.56.03-.74.22-.17.49-.11.71.15.32.38.62.77.95,1.15.08.09.21.14.32.21.02-.02.04-.05.06-.07-.16-.19-.32-.38-.46-.58-.17-.23-.13-.5.07-.66.2-.16.48-.13.67.08.04.04.07.08.11.12.29.36.58.71.86,1.07.12.14.7.32.85.23.1-.06.15-.19.22-.29.06-.1.18-.24.15-.3-.12-.24-.12-.57-.45-.69-.47-.17-.93-.35-1.39-.53-.3-.12-.43-.36-.34-.62.1-.27.36-.38.67-.27.21.08.42.16.65.25,0-.19-.1-.27-.25-.33-.46-.18-.93-.36-1.39-.54-.31-.12-.46-.38-.36-.63.11-.28.37-.38.69-.26.19.07.38.14.57.21.01,0,.03,0,.08,0-.07-.17-.14-.33-.21-.48-.11-.28-.02-.54.22-.65.24-.11.51,0,.64.26.08.16.15.32.24.53.1-.26.18-.46.26-.67.12-.31.37-.44.64-.33.27.1.36.37.25.68-.17.46-.36.93-.52,1.39-.04.11-.01.25-.02.38.03,0,.06,0,.09.01.08-.2.15-.4.23-.59.13-.32.37-.46.63-.37.29.1.39.37.26.71-.14.38-.27.78-.44,1.15-.12.27-.14.51.03.76.06.1.09.26.17.28.2.06.41.07.62.07.14,0,.45-.58.42-.75-.08-.51-.17-1.03-.25-1.54-.04-.28.12-.5.38-.55.26-.05.49.12.55.38.01.06.02.12.03.18.02.18.03.37.05.55.04,0,.09,0,.13,0,.03-.12.09-.24.08-.35-.07-.52-.16-1.04-.25-1.56-.03-.22.04-.4.25-.51.18-.09.38-.08.52.06.09.09.15.23.18.36.05.21.05.43.08.64l.09.02c.1-.13.19-.27.29-.4.19-.25.46-.3.69-.14.23.16.26.44.08.7-.09.13-.19.26-.33.45.29-.05.51-.08.74-.11.27-.04.47.06.57.27.14.29-.04.61-.39.67-.5.09-1.01.15-1.52.24-.12.02-.22.11-.34.17.01.03.02.06.03.09.2-.03.4-.06.61-.09.38-.06.63.08.67.39.04.29-.15.5-.52.55-.47.07-.94.14-1.4.21-.17.03-.62.45-.6.61.01.13.13.25.16.38.04.22.18.25.37.29.33.07.57-.02.82-.24.3-.28.63-.52.96-.78.24-.19.52-.18.71.04.18.2.14.5-.1.7-.17.15-.36.29-.53.44.01.03.02.05.04.08.12-.04.26-.05.35-.12.4-.3.78-.62,1.16-.93.27-.22.56-.2.74.03.17.23.12.49-.14.71-.16.13-.32.27-.48.4,0,0,0,.01,0,.05.16.02.33.03.49.06.31.04.5.26.48.52-.03.28-.26.45-.59.42-.15-.01-.31-.03-.52-.05.17.21.3.38.44.55.22.27.21.56-.03.74-.22.17-.5.12-.71-.14-.32-.38-.62-.77-.95-1.15-.08-.09-.21-.14-.32-.21-.02.02-.04.05-.06.07.16.19.32.38.46.58.23.33.05.75-.33.75-.14,0-.32-.09-.42-.19-.34-.37-.64-.77-.96-1.16-.12-.14-.7-.32-.85-.23-.08.05-.12.18-.19.25-.19.17-.24.35-.09.58.12.19.17.39.43.47.45.14.89.33,1.32.5.3.12.43.36.34.62-.1.27-.36.38-.67.27-.22-.08-.43-.16-.64-.25-.02.02-.03.05-.05.07.1.09.19.2.31.25.46.19.92.36,1.39.54.31.12.44.39.34.64-.11.27-.36.36-.68.25-.21-.08-.41-.16-.67-.25Z"/>
        <path class="cls-2" d="M9.26,10.98c.21.37.53.95,0,1.2-.56.24-.79-.42-.98-.81,0,0,.15,0,.15,0l-.18.49c-.06.15-.12.36-.28.49-.35.31-.97,0-.93-.47.11-.58.33-1,.5-1.53.08-.15.06-.32.06-.47,0,0,.13.17.13.17,0,0-.1-.02-.1-.02l.18-.1c-.19.38-.23,1.03-.79,1.09-1.71-.16.24-2.09-.26-2.75-.12-.24-.13-.15-.32-.17-.34-.03-.13-.12-.3.09-.09.14-.2.38-.16.42l.22,1.23c.03.17.11.49-.07.78-.43.63-1.34.25-1.34-.41,0,0-.05-.64-.05-.64l.26.24h-.15s.25-.21.25-.21l-.06.24c0,.13.09.54.11.69.05.37.14.67.15,1.09-.04.61-.85.92-1.25.45-.3-.32-.26-.77-.33-1.14,0,0,.21.24.21.24l-.08-.02.3-.11c-.15.19-.2.34-.45.57-.62.55-1.55-.24-1.14-.94.16-.26.26-.38.4-.58,0,0,.28.46.28.46l-.53.08c-.21.03-.46.08-.67-.01-.59-.19-.67-1.11-.09-1.38.42-.17.74-.15,1.13-.23.15-.03.57-.07.71-.12,0,0,.23-.12.23-.12l-.15.35-.03-.09.31.19-.62.08c-1.25.2-1.35-1.5-.1-1.52,0,0,1.23-.18,1.23-.18.03,0,.24-.15.34-.26.06-.04.09-.17.08-.07.01.01-.03-.07-.1-.2-.07-.21-.05-.19-.05-.19-.59-.28-1.04.42-1.55.75-.14.11-.36.33-.69.33-.32,0-.59-.23-.67-.54-.12-.58.47-.84.8-1.14,0,0-.07.21-.07.21l-.02-.08.25.14c-.23.05-.23,0-.41.16-.2.16-.62.48-.83.64-.14.1-.26.23-.48.32-.48.21-1.03-.33-.82-.81.16-.37.55-.53.81-.78,0,0,.08.27.08.27-.45-.04-1.2-.1-1.14-.75.07-.65.81-.55,1.26-.48,0,0-.11.21-.11.21-.18-.29-.54-.55-.61-.93-.1-.48.53-.85.89-.55.33.27.47.54.72.82.22.24.4.58.72.71,0,0-.14.02-.14.02l.06-.07v.13s-.39-.5-.39-.5c-.4-.36-.13-1.11.47-1.01.27.04.41.27.54.42l.8.97c.11.11.55.26.71.2.05-.04.1-.12.15-.22.06-.1.13-.19.15-.24,0,0,0,0,0,0,0,0,0,.02,0,.03-.02-.03-.03-.07-.04-.1-.07-.21-.14-.48-.36-.53,0,0-1.18-.44-1.18-.44-1.05-.21-.72-1.61.3-1.21,0,0,.59.22.59.22l-.21.15c.06-.2-.43-.26-.73-.4-.34-.15-.64-.21-1.02-.42-.44-.26-.35-1.02.19-1.14.4-.1.76.21,1.06.24,0,0-.17.25-.17.25-.09-.22-.18-.37-.26-.65-.17-.71.84-1.1,1.21-.48.13.23.2.41.3.62h-.38c.17-.33.18-.73.51-1.02.43-.37,1.15,0,1.11.56-.05.41-.23.71-.34,1.07-.04.1-.19.53-.22.62-.02.02,0,.28,0,.32,0,0-.21-.25-.21-.25,0,0,.09.01.09.01l-.26.16.22-.59c.46-1.16,1.9-.35,1.31.7,0,0-.42,1.14-.42,1.14-.07.17.09.38.16.55,0,.04.07.05-.08-.04.15.04.35.06.52.05-.17.04-.09.04-.09.01.09-.09.26-.46.22-.46,0,0-.2-1.23-.2-1.23-.4-1.27,1.35-1.65,1.51-.4.03.24.04.42.06.64l-.29-.28h.13s-.32.24-.32.24l.07-.23c-.04-.28-.14-.86-.19-1.18-.02-.2-.07-.28-.07-.59.04-.65.9-.97,1.33-.48.32.36.26.78.33,1.17,0,0-.26-.28-.26-.28,0,0,.09.02.09.02l-.32.13c.06-.07.23-.33.29-.4.57-.84,1.85-.06,1.36.81-.16.26-.27.38-.4.58,0,0-.31-.51-.31-.51.42-.03.72-.21,1.21-.07.3.11.48.39.51.68.06.9-.97.9-1.55,1-.14.02-.57.08-.69.12,0,0-.22.13-.22.13l.16-.42.03.09-.36-.21.6-.09c1.28-.24,1.48,1.54.19,1.62,0,0-1.2.19-1.2.19-.03,0-.14.02-.11.02-.03.02-.16.11-.21.18-.05.04-.15.21-.12.13.01-.07,0-.09,0-.08l.03.06s.06.09.09.18c.02.04.03.11.04.15,0-.01-.08-.06,0-.03.55.17.74-.31,1.26-.65.19-.13.26-.25.57-.41.71-.34,1.45.56.99,1.18-.22.28-.35.33-.52.48,0,0-.21.17-.21.17l.09-.39s.03.08.03.08l-.41-.18.24-.06s0,0,.03-.02c.09-.06.43-.33.51-.4.45-.33,1.13-1.08,1.72-.5.19.17.31.51.21.79-.09.27-.32.43-.43.52-.11.07-.26.21-.36.29.19-.12-.03-.23-.17-.44.23.04.45.03.71.12.76.26.58,1.41-.21,1.42-.3,0-.46-.04-.7-.06l.22-.41c.21.32.54.55.62.98.11.58-.62,1.01-1.07.67-.21-.15-.3-.31-.41-.43-.24-.27-.55-.72-.8-.97-.32-.19-.24-.11.04-.17,0,0-.06.07-.06.07v-.25c.23.36.76.73.55,1.25-.27.64-1.05.38-1.29-.07,0,0-.79-.98-.79-.98-.07-.09-.55-.24-.66-.2-.03,0-.08.15-.18.24-.14.13-.15.23-.06.39.11.21.17.36.32.42l1.16.46c.98.2.71,1.51-.27,1.13,0,0-.58-.23-.58-.23l.1-.03-.05.07s-.01-.11-.01-.11c.43.46,1.31.55,1.87.92.35.24.2.86-.22.9-.41.02-.65-.2-.99-.32h0ZM9.21,10.94c.28.06.75.32,1.02.27.33-.05.45-.54.17-.72-.54-.34-1.45-.42-1.91-.89-.08-.06.04-.26.13-.21.38.1.82.42,1.08.19.31-.33.01-.64-.37-.72,0,0-1.17-.43-1.17-.43-.32-.13-.58-.61-.56-.9.04-.24.21-.35.39-.61.2-.13.31-.06.42-.06.23.06.42.07.66.28l.8.95c.23.38.59.42.68.17.12-.23-.29-.54-.52-.87-.06-.08-.06-.18,0-.25.07-.11.2-.2.32-.11.42.17.71.69,1.14,1.17.12.14.22.29.31.33.17.12.39-.04.35-.21.03-.21-1.1-1.02-.32-1.15.2.01.47.05.61.04.37-.07.25-.45-.2-.43,0,0-.32-.03-.32-.03-.32-.04-.28-.45-.13-.56.15-.15.53-.4.59-.56.02-.06,0-.1-.06-.17-.18-.12-.3.1-.51.24,0,0-.41.33-.41.33-.2.14-.48.45-.71.53-.27.09-.51.19-.66-.09-.19-.32.02-.48.26-.66.14-.12.36-.28.38-.33.09-.13-.05-.25-.17-.2-.46.29-.92.85-1.47,1.1-.51.15-1.18.07-1.3-.52-.09-.18-.19-.28-.15-.54.16-.45.56-.81,1.01-.87,0,0,1.2-.18,1.2-.18.39-.06.32-.14.28-.25,0-.02-.11-.06-.27-.03-.27.01-.84.24-.96-.13-.18-.35.08-.57.58-.71.32-.05.86-.13,1.18-.18.17-.03.38-.05.41-.08.13-.06.07-.21-.01-.25-.04-.03-.17,0-.36.02-.28.03-.83.23-.89-.2-.03-.27.33-.55.41-.73.12-.22-.18-.31-.27-.13-.16.18-.31.58-.61.52-.56-.02-.28-.94-.5-1.11-.01-.09-.25,0-.23.1,0,.04.04.3.06.44.03.32.22,1.12.18,1.39-.08.35-.15.56-.53.49-.42-.05-.27-.61-.34-.89,0-.26-.21-.3-.33-.17-.06.05.01.33.02.4,0,0,.2,1.23.2,1.23.02.43-.13.56-.24.79-.14.16-.12.27-.46.35-.3.02-.92-.05-.98-.36-.13-.25-.3-.6-.18-.92,0,0,.47-1.19.47-1.19.19-.41.1-.54-.12-.56-.36.05-.29,1.02-.72.97-.15,0-.32-.09-.3-.26-.01-.15,0-.43.09-.59.14-.4.44-1.03.52-1.41.04-.2-.25-.33-.39-.21-.15.11-.26.57-.4.86-.34.44-.51-.39-.64-.57-.16-.28-.58-.13-.51.19,0,.19.43.67.13.82-.38.05-.71-.31-1.05-.25-.23.05-.3.38-.07.52.48.27,1.22.43,1.72.74.17.14.24.56-.06.5-.38-.12-.82-.42-1.03-.22-.11.09-.16.28-.09.39.1.24,1.35.59,1.6.73.39.12.45.53.56.83,0,.16-.15.28-.19.37-.12.27-.34.41-.61.33-.22-.06-.42-.09-.64-.29l-.78-.98c-.13-.17-.24-.33-.41-.35-.38-.06-.58.42-.26.69,0,0,.39.49.39.49.08.09-.09.3-.2.23-.52-.22-1-1.15-1.45-1.51-.23-.19-.58.06-.53.32.06.25.37.53.56.81.07.09,0,.22-.11.21-.34,0-.9-.21-.96.25,0,.46.57.36.9.42.08,0,.14.09.13.17-.16.3-.68.51-.75.76-.09.21.17.47.38.36.35-.21.85-.68,1.2-.94.09-.11.39-.23.54-.24.15-.05.25.08.27.22.07.34-.8.58-.7.94.1.23.31.28.63-.05.34-.27.58-.5.99-.81.44-.29,1.33-.16,1.39.39.02.06.11.14.15.37-.01.31-.13.36-.2.47-.19.18-.29.34-.66.45l-1.23.19c-.44.04-.46.18-.38.35.09.15.76-.04.93-.04.19-.03.31.12.35.29.1.26-.2.39-.39.48-.38.14-.97.17-1.38.25-.18.03-.37.05-.42.09-.18.1-.05.37.15.32.15-.02.61-.08.76-.11.16-.02.31.09.33.25.02.26-.33.53-.41.71-.12.2.11.37.27.24.08-.06.24-.3.36-.46.15-.22.56-.1.59.15.07.34,0,.94.35.87.26-.12.09-.34.08-.61-.04-.26-.12-.77-.16-1.03-.05-.25-.02-.8.3-.81.18-.02.4.03.41.24,0,0,.04.6.04.6.04.49.61.37.41-.22,0,0-.19-1.23-.19-1.23-.03-.38.13-.52.24-.73.09-.1.08-.19.33-.31.19-.03.36.03.4.03.29-.07.57.18.65.41.46.79-.48,1.68-.47,2.39.45.62.65-.27.83-.67.07-.18.42-.11.41.08.05.58-.53,1.43-.63,1.99-.05.27.34.48.55.3.21-.18.29-.59.44-.89.03-.06.12-.06.15,0,.15.29.29.96.78.77.49-.2.1-.82,0-1.14h0Z"/>
      </g>
      <path class="cls-1" d="M9.24,10.96c.09.21.17.37.23.54.1.26,0,.53-.23.63-.23.11-.5,0-.63-.23-.04-.08-.07-.17-.11-.25-.04-.08-.08-.17-.14-.3-.09.24-.17.44-.25.63-.13.33-.37.47-.64.36-.28-.1-.37-.37-.25-.69.17-.46.35-.91.51-1.37.04-.11.02-.25.02-.38-.03,0-.06-.01-.1-.02-.09.23-.17.46-.28.69-.15.33-.55.39-.79.13-.14-.15-.15-.33-.08-.52.15-.39.28-.79.45-1.17.14-.29.13-.54-.02-.83-.1-.18-.18-.31-.41-.27-.08.01-.17-.02-.25-.03-.05,0-.1-.02-.14,0-.14.05-.43.59-.41.74.08.49.16.98.24,1.47.06.35-.09.58-.39.63-.28.04-.5-.13-.55-.47-.03-.22-.04-.44-.05-.66h-.15c-.02.12-.08.25-.06.37.07.51.16,1.03.24,1.54.03.21-.03.39-.22.5-.18.11-.37.11-.52-.03-.1-.09-.17-.24-.2-.37-.05-.21-.06-.43-.08-.64-.03,0-.05-.01-.08-.02-.09.13-.18.25-.27.38-.2.27-.47.33-.7.17-.24-.17-.26-.45-.07-.72.09-.13.18-.25.32-.44-.29.04-.52.08-.75.11-.32.04-.58-.16-.59-.45,0-.26.16-.45.45-.5.49-.08.98-.14,1.47-.23.13-.02.24-.11.36-.17-.01-.03-.02-.06-.03-.09-.22.03-.43.06-.65.09-.35.05-.59-.1-.63-.39-.04-.29.14-.5.49-.55.47-.07.94-.14,1.4-.21.19-.03.64-.43.63-.61,0-.13-.13-.25-.15-.38-.04-.22-.18-.25-.37-.29-.33-.07-.57.01-.82.24-.3.28-.63.52-.96.78-.25.2-.54.17-.72-.06-.16-.2-.11-.48.12-.68.09-.08.18-.15.27-.22.08-.07.17-.14.25-.2,0-.03-.01-.05-.02-.08-.11.03-.25.03-.34.1-.4.3-.79.63-1.18.94-.26.21-.54.2-.72-.02-.19-.23-.14-.51.13-.73.17-.14.33-.27.54-.44-.23-.03-.4-.04-.57-.07-.29-.04-.48-.26-.45-.52.03-.26.25-.44.55-.42.17.01.34.03.56.05-.17-.21-.3-.38-.44-.55-.22-.27-.2-.56.03-.74.22-.17.49-.11.71.15.32.38.62.77.95,1.15.08.09.21.14.32.21.02-.02.04-.05.06-.07-.16-.19-.32-.38-.46-.58-.17-.23-.13-.5.07-.66.2-.16.48-.13.67.08.04.04.07.08.11.12.29.36.58.71.86,1.07.12.14.7.32.85.23.1-.06.15-.19.22-.29.06-.1.18-.24.15-.3-.12-.24-.12-.57-.45-.69-.47-.17-.93-.35-1.39-.53-.3-.12-.43-.36-.34-.62.1-.27.36-.38.67-.27.21.08.42.16.65.25,0-.19-.1-.27-.25-.33-.46-.18-.93-.36-1.39-.54-.31-.12-.46-.38-.36-.63.11-.28.37-.38.69-.26.19.07.38.14.57.21.01,0,.03,0,.08,0-.07-.17-.14-.33-.21-.48-.11-.28-.02-.54.22-.65.24-.11.51,0,.64.26.08.16.15.32.24.53.1-.26.18-.46.26-.67.12-.31.37-.44.64-.33.27.1.36.37.25.68-.17.46-.36.93-.52,1.39-.04.11-.01.25-.02.38.03,0,.06,0,.09.01.08-.2.15-.4.23-.59.13-.32.37-.46.63-.37.29.1.39.37.26.71-.14.38-.27.78-.44,1.15-.12.27-.14.51.03.76.06.1.09.26.17.28.2.06.41.07.62.07.14,0,.45-.58.42-.75-.08-.51-.17-1.03-.25-1.54-.04-.28.12-.5.38-.55.26-.05.49.12.55.38.01.06.02.12.03.18.02.18.03.37.05.55.04,0,.09,0,.13,0,.03-.12.09-.24.08-.35-.07-.52-.16-1.04-.25-1.56-.03-.22.04-.4.25-.51.18-.09.38-.08.52.06.09.09.15.23.18.36.05.21.05.43.08.64l.09.02c.1-.13.19-.27.29-.4.19-.25.46-.3.69-.14.23.16.26.44.08.7-.09.13-.19.26-.33.45.29-.05.51-.08.74-.11.27-.04.47.06.57.27.14.29-.04.61-.39.67-.5.09-1.01.15-1.52.24-.12.02-.22.11-.34.17.01.03.02.06.03.09.2-.03.4-.06.61-.09.38-.06.63.08.67.39.04.29-.15.5-.52.55-.47.07-.94.14-1.4.21-.17.03-.62.45-.6.61.01.13.13.25.16.38.04.22.18.25.37.29.33.07.57-.02.82-.24.3-.28.63-.52.96-.78.24-.19.52-.18.71.04.18.2.14.5-.1.7-.17.15-.36.29-.53.44.01.03.02.05.04.08.12-.04.26-.05.35-.12.4-.3.78-.62,1.16-.93.27-.22.56-.2.74.03.17.23.12.49-.14.71-.16.13-.32.27-.48.4,0,0,0,.01,0,.05.16.02.33.03.49.06.31.04.5.26.48.52-.03.28-.26.45-.59.42-.15-.01-.31-.03-.52-.05.17.21.3.38.44.55.22.27.21.56-.03.74-.22.17-.5.12-.71-.14-.32-.38-.62-.77-.95-1.15-.08-.09-.21-.14-.32-.21-.02.02-.04.05-.06.07.16.19.32.38.46.58.23.33.05.75-.33.75-.14,0-.32-.09-.42-.19-.34-.37-.64-.77-.96-1.16-.12-.14-.7-.32-.85-.23-.08.05-.12.18-.19.25-.19.17-.24.35-.09.58.12.19.17.39.43.47.45.14.89.33,1.32.5.3.12.43.36.34.62-.1.27-.36.38-.67.27-.22-.08-.43-.16-.64-.25-.02.02-.03.05-.05.07.1.09.19.2.31.25.46.19.92.36,1.39.54.31.12.44.39.34.64-.11.27-.36.36-.68.25-.21-.08-.41-.16-.67-.25Z"/>
    </g>
  </g>
</svg>